<?xml version="1.0" encoding="UTF-8" standalone="no"?>
<svg
   xmlns:dc="http://purl.org/dc/elements/1.1/"
   xmlns:cc="http://creativecommons.org/ns#"
   xmlns:rdf="http://www.w3.org/1999/02/22-rdf-syntax-ns#"
   xmlns:svg="http://www.w3.org/2000/svg"
   xmlns="http://www.w3.org/2000/svg"
   version="1.1"
   id="svg2"
   xml:space="preserve"
   width="65.015404"
   height="53.701439"
   viewBox="0 0 65.015405 53.701439"><metadata
     id="metadata8"><rdf:RDF><cc:Work
         rdf:about=""><dc:format>image/svg+xml</dc:format><dc:type
           rdf:resource="http://purl.org/dc/dcmitype/StillImage" /><dc:title></dc:title></cc:Work></rdf:RDF></metadata><defs
     id="defs6"><clipPath
   clipPathUnits="userSpaceOnUse"
   id="clipPath22"><path
     d="M 0,792 H 612 V 0 H 0 Z"
     id="path20" /></clipPath><clipPath
   clipPathUnits="userSpaceOnUse"
   id="clipPath52"><path
     d="M 0,792 H 612 V 0 H 0 Z"
     id="path50" /></clipPath><clipPath
   clipPathUnits="userSpaceOnUse"
   id="clipPath80"><path
     d="M 0,792 H 612 V 0 H 0 Z"
     id="path78" /></clipPath><clipPath
   clipPathUnits="userSpaceOnUse"
   id="clipPath108"><path
     d="M 0,792 H 612 V 0 H 0 Z"
     id="path106" /></clipPath>



</defs><g
     transform="translate(-11.480567,-18.321353)"
     id="g4840"><g
       id="g54"
       transform="matrix(1.4126902,0,0,-1.4126902,31.448138,24.689488)"><path
         d="m 0,0 c 1.203,-1.099 0.792,-3.877 -0.919,-6.206 -1.711,-2.329 -4.073,-3.327 -5.277,-2.228 -1.203,1.098 -0.792,3.877 0.919,6.206 C -3.566,0.101 -1.204,1.099 0,0"
         style="fill:#84bec8;fill-opacity:1;fill-rule:nonzero;stroke:none"
         id="path56" /></g><g
       id="g62"
       transform="matrix(1.4126902,0,0,-1.4126902,57.578669,65.92097)"><path
         d="M 0,0 C -1.265,1.008 -1.018,3.811 0.553,6.26 2.125,8.708 4.423,9.875 5.688,8.867 6.954,7.858 6.706,5.056 5.135,2.607 3.564,0.159 1.265,-1.009 0,0"
         style="fill:#1a7fbb;fill-opacity:1;fill-rule:nonzero;stroke:none"
         id="path64" /></g><g
       id="g4787"><path
         d="m 23.499637,29.0814 c 1.185247,-1.613292 3.123458,-2.02721 4.329895,-0.925312 1.206438,1.101898 1.226216,3.30287 0.04097,4.914749 -1.185247,1.61188 -3.123458,2.027211 -4.329895,0.925312 -1.20785,-1.101898 -1.224802,-3.302869 -0.04097,-4.914749 M 49.12725,52.930436 c -0.20484,0.266998 -0.413918,0.522695 -0.63006,0.771329 -0.07205,0.08335 -0.14692,0.166697 -0.22038,0.248633 -0.0664,0.07205 -0.132792,0.142682 -0.199189,0.211904 -0.0339,0.03814 -0.06781,0.07346 -0.104539,0.11019 -0.04379,0.04662 -0.09041,0.09324 -0.135618,0.139856 -0.141269,0.142682 -0.283951,0.281125 -0.428045,0.416744 -0.07487,0.06922 -0.151158,0.139856 -0.228856,0.207665 -0.05368,0.04803 -0.107365,0.09606 -0.16246,0.144094 -0.103126,0.09041 -0.209078,0.179412 -0.315029,0.264174 -0.07205,0.06216 -0.148333,0.121491 -0.223206,0.179411 -0.06922,0.05509 -0.138443,0.108777 -0.207665,0.159634 -0.01413,0.0113 -0.02825,0.02119 -0.04238,0.03249 -0.04803,0.03532 -0.09747,0.07205 -0.145507,0.107364 -0.114428,0.08335 -0.228856,0.165285 -0.346109,0.244396 -0.07487,0.04944 -0.149745,0.100301 -0.22603,0.149745 -0.06216,0.04238 -0.12573,0.08194 -0.190713,0.121491 -0.02684,0.01837 -0.0551,0.03532 -0.08335,0.05227 -0.05792,0.03673 -0.115841,0.07346 -0.175174,0.107364 -0.01978,0.0113 -0.03956,0.02402 -0.05933,0.0339 -0.05792,0.03532 -0.11584,0.06922 -0.175173,0.101714 -0.02967,0.01695 -0.05933,0.03532 -0.09041,0.05086 -0.04944,0.02825 -0.101713,0.05651 -0.15257,0.08335 -0.03249,0.01836 -0.06498,0.03532 -0.09748,0.05227 -0.07487,0.03956 -0.151158,0.0777 -0.22603,0.11584 -0.07205,0.03673 -0.144095,0.07205 -0.217554,0.105952 -0.02119,0.0099 -0.04238,0.02119 -0.06498,0.03108 -0.05651,0.02684 -0.113015,0.05227 -0.169523,0.0777 -0.03108,0.01413 -0.06216,0.02825 -0.09324,0.04238 -0.05086,0.0226 -0.101713,0.04379 -0.153983,0.0664 -0.03108,0.01413 -0.06357,0.02684 -0.09606,0.03956 -0.07205,0.02967 -0.141269,0.05792 -0.213316,0.08476 -0.0071,0.0042 -0.01554,0.0085 -0.02402,0.0113 -0.07346,0.02825 -0.148332,0.05651 -0.221792,0.08194 -0.01413,0.0071 -0.02967,0.01271 -0.04521,0.01695 -0.07205,0.02684 -0.145507,0.05227 -0.218967,0.07628 -0.0113,0.0042 -0.02402,0.0085 -0.03673,0.01271 -0.08194,0.02825 -0.163872,0.0551 -0.245808,0.0777 -0.08617,0.02825 -0.170936,0.05227 -0.258522,0.07629 -0.08759,0.02543 -0.173761,0.04803 -0.261348,0.07063 -0.08617,0.02119 -0.172348,0.04238 -0.259935,0.06075 -0.08617,0.01978 -0.173761,0.03956 -0.261348,0.05651 -0.13138,0.02684 -0.261347,0.04944 -0.391315,0.07063 -0.13138,0.02119 -0.261348,0.03956 -0.391315,0.0551 -0.173761,0.02119 -0.347522,0.03673 -0.51987,0.04662 -0.0777,0.0071 -0.155396,0.0113 -0.233094,0.01413 -0.01836,0.0014 -0.0339,0.0014 -0.04944,0.0014 -0.07911,0.0028 -0.156809,0.0057 -0.234507,0.0057 -0.08617,0 -0.170935,0 -0.257109,-0.0014 -0.08194,0 -0.16246,-0.0028 -0.244396,-0.0071 -0.0113,0 -0.0226,0 -0.0339,-0.0014 -0.0777,-0.0042 -0.156809,-0.0085 -0.233094,-0.01413 -0.08052,-0.0057 -0.159634,-0.01271 -0.237332,-0.01978 -0.02119,-0.0014 -0.04238,-0.0042 -0.06216,-0.0071 -0.06216,-0.0071 -0.122904,-0.01271 -0.185062,-0.02119 -0.02402,-0.0042 -0.04944,-0.0071 -0.07346,-0.0113 -0.06216,-0.0071 -0.124317,-0.01554 -0.186475,-0.02684 -0.01837,-0.0014 -0.03532,-0.0057 -0.05227,-0.0085 -0.0664,-0.0113 -0.132792,-0.0226 -0.200602,-0.03532 -0.01413,-0.0028 -0.02967,-0.0042 -0.04379,-0.0085 -0.07063,-0.01413 -0.141269,-0.02825 -0.213316,-0.04521 -0.0057,0 -0.0099,-0.0014 -0.01413,-0.0028 -0.07487,-0.01554 -0.14692,-0.03249 -0.218967,-0.05227 -0.07063,-0.01695 -0.141269,-0.03391 -0.211904,-0.0551 -0.05368,-0.01554 -0.107364,-0.03249 -0.161046,-0.04803 -0.04097,-0.0113 -0.08052,-0.02402 -0.121492,-0.03814 -0.0113,-0.0014 -0.02119,-0.0057 -0.03249,-0.0099 -0.07346,-0.0226 -0.14692,-0.04803 -0.218967,-0.07346 -0.07487,-0.02543 -0.148333,-0.05227 -0.221793,-0.08194 -0.105952,-0.04097 -0.211903,-0.08194 -0.316442,-0.129968 -0.05651,-0.02401 -0.113016,-0.04803 -0.169523,-0.07487 -0.06922,-0.03108 -0.138444,-0.06357 -0.206253,-0.09889 -0.06216,-0.03108 -0.122904,-0.06216 -0.18365,-0.09324 -0.09183,-0.04662 -0.180824,-0.09606 -0.271236,-0.148333 -0.0664,-0.03814 -0.13138,-0.07628 -0.196364,-0.117253 -0.03249,-0.01837 -0.06498,-0.03814 -0.09606,-0.06074 -0.05933,-0.03532 -0.117253,-0.07346 -0.175174,-0.111603 -0.216141,-0.141269 -0.426632,-0.298078 -0.632885,-0.463362 -0.05792,-0.04662 -0.117253,-0.09465 -0.173761,-0.144095 -0.08052,-0.06922 -0.161047,-0.138443 -0.24157,-0.211903 -4.353911,-3.973898 -4.418895,-11.910391 -0.148332,-17.725024 4.273388,-5.816046 4.208404,-13.751127 -0.145507,-17.725024 -0.07911,-0.07205 -0.159634,-0.142682 -0.24157,-0.210491 -0.05651,-0.05086 -0.115841,-0.09748 -0.173761,-0.145507 -0.206253,-0.165285 -0.418157,-0.320681 -0.634298,-0.463363 -0.05651,-0.03814 -0.114428,-0.07487 -0.173761,-0.111602 -0.03108,-0.02119 -0.06357,-0.04097 -0.09606,-0.06075 -0.06498,-0.03956 -0.129968,-0.07911 -0.196364,-0.117253 -0.319268,-0.182237 -0.645599,-0.341871 -0.98182,-0.478902 -0.06357,-0.02684 -0.128554,-0.05227 -0.193538,-0.0777 -0.07205,-0.02684 -0.142682,-0.05368 -0.216142,-0.07911 -0.03814,-0.01271 -0.07628,-0.02543 -0.11584,-0.03814 -0.04521,-0.01554 -0.09183,-0.03249 -0.138444,-0.04662 -0.02825,-0.0085 -0.0551,-0.01695 -0.08476,-0.02402 -0.05227,-0.01695 -0.103127,-0.03108 -0.155396,-0.04662 -0.07064,-0.01978 -0.141269,-0.03956 -0.213317,-0.05651 -0.05651,-0.01554 -0.113015,-0.02967 -0.169522,-0.04238 -0.04379,-0.0099 -0.08759,-0.01978 -0.131381,-0.02825 -0.0085,-0.0028 -0.01836,-0.0042 -0.02825,-0.0056 -0.0777,-0.01695 -0.156809,-0.03249 -0.23592,-0.04803 -0.0777,-0.01271 -0.155396,-0.02684 -0.233094,-0.03814 -0.07346,-0.01272 -0.146919,-0.0226 -0.220379,-0.03108 -0.06075,-0.0099 -0.122904,-0.01695 -0.185063,-0.0226 -0.02119,-0.0028 -0.04521,-0.0042 -0.06922,-0.0057 -0.05086,-0.0071 -0.104539,-0.0113 -0.156808,-0.01554 -0.03814,-0.0042 -0.07628,-0.0071 -0.113015,-0.0085 -0.04379,-0.0042 -0.08617,-0.0057 -0.131381,-0.0071 -0.04803,-0.0042 -0.09889,-0.0071 -0.146919,-0.0085 -0.0226,-0.0014 -0.04521,-0.0014 -0.06922,-0.0014 -0.06922,-0.0028 -0.139856,-0.0028 -0.207666,-0.0042 -0.01836,0 -0.0339,-0.0014 -0.05086,0 -0.05792,-0.0014 -0.113016,-0.0014 -0.169523,0.0014 -0.04662,0 -0.09324,0 -0.139857,0.0028 -0.04379,0.0014 -0.08617,0.0028 -0.129967,0.0056 -0.03814,0 -0.0777,0.0028 -0.118666,0.0057 -0.04521,0.0014 -0.09183,0.0057 -0.137031,0.0085 -0.04662,0.0014 -0.09183,0.0057 -0.138444,0.0113 -0.0777,0.0056 -0.156808,0.01271 -0.235919,0.0226 -0.0551,0.0056 -0.108777,0.01271 -0.162459,0.01836 -0.04379,0.0056 -0.08759,0.0113 -0.129968,0.01836 -0.03249,0.0042 -0.0664,0.0099 -0.100301,0.01413 -0.05792,0.0085 -0.11584,0.01695 -0.173761,0.02825 -0.02825,0.0042 -0.05792,0.0099 -0.08759,0.01554 -0.05509,0.0085 -0.111603,0.01978 -0.166698,0.03108 -0.120079,0.0226 -0.240157,0.04803 -0.360236,0.07628 -0.06216,0.01413 -0.122904,0.02825 -0.185062,0.04379 -0.01978,0.0057 -0.03956,0.0099 -0.05933,0.01554 -0.07063,0.01837 -0.138444,0.03673 -0.207666,0.05651 -0.01836,0.0028 -0.03532,0.0085 -0.05086,0.01413 -0.06216,0.01554 -0.121491,0.0339 -0.182237,0.05227 -0.04238,0.01272 -0.08335,0.02543 -0.125729,0.03956 -0.04097,0.01271 -0.08052,0.02543 -0.121491,0.03814 -0.04803,0.01554 -0.09606,0.03249 -0.145508,0.04945 -0.03814,0.01271 -0.0777,0.02684 -0.11584,0.03956 -0.04944,0.01695 -0.09748,0.03532 -0.145507,0.05368 -0.03956,0.01413 -0.07911,0.02967 -0.118666,0.04379 -0.03956,0.01554 -0.07911,0.03108 -0.118666,0.04662 -0.05509,0.02119 -0.11019,0.04379 -0.166698,0.06781 -0.0226,0.0085 -0.04521,0.01836 -0.0664,0.02825 -0.06075,0.02402 -0.118666,0.04944 -0.176586,0.07487 -0.03956,0.01695 -0.07911,0.03532 -0.118666,0.05368 -0.04803,0.02119 -0.09465,0.04379 -0.142682,0.0664 -0.0339,0.01413 -0.0664,0.03108 -0.09889,0.04662 -0.04521,0.02119 -0.09324,0.04379 -0.139857,0.06781 -0.05086,0.02543 -0.103126,0.05086 -0.155396,0.0777 -0.0664,0.03391 -0.132792,0.06922 -0.197776,0.104539 -0.05792,0.02967 -0.117254,0.06216 -0.173761,0.09465 -0.02543,0.01413 -0.05086,0.02825 -0.07487,0.04238 -0.06781,0.03814 -0.134205,0.07629 -0.200602,0.117254 -0.08194,0.04521 -0.162459,0.09606 -0.242982,0.145507 -0.07487,0.04521 -0.14692,0.09183 -0.22038,0.138443 -0.03532,0.02402 -0.07205,0.04803 -0.108777,0.07346 -0.05651,0.03532 -0.111603,0.07205 -0.165285,0.11019 -0.111603,0.07487 -0.221792,0.153983 -0.330569,0.233094 -0.04944,0.03532 -0.09748,0.07205 -0.145508,0.108777 -0.01695,0.0113 -0.03249,0.02402 -0.04944,0.03532 -0.06357,0.04945 -0.128555,0.100301 -0.194951,0.149746 -0.148332,0.11584 -0.295252,0.235919 -0.440759,0.361648 -0.04097,0.0339 -0.08194,0.06922 -0.122904,0.105952 -0.04803,0.04097 -0.09606,0.08335 -0.142682,0.125729 -0.07629,0.06781 -0.152571,0.137031 -0.228856,0.209079 -0.144094,0.134205 -0.286776,0.272649 -0.428045,0.415331 -0.05509,0.05509 -0.108777,0.111602 -0.162459,0.16811 -0.02684,0.02684 -0.05368,0.05368 -0.07911,0.08194 -0.142682,0.149745 -0.281125,0.305141 -0.419569,0.461949 -0.214729,0.247221 -0.42522,0.504331 -0.628647,0.769917 v 0.0014 c -0.06922,0.08759 -0.135618,0.177999 -0.202015,0.268411 -8.5439502,11.630679 -8.41257,27.502253 0.292427,35.448636 8.638601,7.885636 22.471663,5.006574 31.031153,-6.399487"
         style="fill:#84bec8;fill-opacity:1;fill-rule:nonzero;stroke:none;stroke-width:1.41269016"
         id="path60" /><path
         d="m 65.252684,60.960026 c -1.087771,1.696641 -2.997729,2.250415 -4.266324,1.238929 -1.268596,-1.011486 -1.415516,-3.206806 -0.327745,-4.902035 1.086359,-1.695228 2.996316,-2.249002 4.266325,-1.237516 1.268596,1.011486 1.415515,3.205394 0.327744,4.900622 M 38.284428,39.025185 c 0.187888,-0.281125 0.381426,-0.550949 0.582028,-0.813709 0.06922,-0.09041 0.137031,-0.177999 0.206253,-0.265586 0.06216,-0.07628 0.122904,-0.151158 0.186475,-0.22603 0.03249,-0.03956 0.06498,-0.0777 0.09748,-0.117254 0.04097,-0.04944 0.08476,-0.100301 0.127142,-0.149745 0.132793,-0.151158 0.266999,-0.300903 0.402617,-0.444997 0.07205,-0.07629 0.144094,-0.151158 0.216141,-0.226031 0.05086,-0.05086 0.103127,-0.103126 0.153984,-0.155396 0.09748,-0.09606 0.197776,-0.192126 0.29949,-0.285363 0.06781,-0.06781 0.139856,-0.132793 0.210491,-0.194951 0.0664,-0.05933 0.132793,-0.118666 0.199189,-0.175174 0.01271,-0.01271 0.02684,-0.02402 0.04097,-0.03532 0.04521,-0.03956 0.09183,-0.07911 0.138444,-0.117253 0.108777,-0.09183 0.218967,-0.182238 0.330569,-0.269824 0.07205,-0.0551 0.144095,-0.11019 0.217555,-0.165285 0.05933,-0.04662 0.120078,-0.09183 0.182237,-0.135618 0.02684,-0.02119 0.05368,-0.03956 0.08052,-0.05933 0.05651,-0.03956 0.111602,-0.08052 0.16811,-0.118666 0.01978,-0.01272 0.03814,-0.02684 0.05792,-0.03814 0.0551,-0.03956 0.111603,-0.0777 0.169523,-0.114428 0.02684,-0.01978 0.05651,-0.03814 0.08617,-0.05651 0.04803,-0.0339 0.09748,-0.06498 0.148333,-0.09465 0.02967,-0.02119 0.06216,-0.03956 0.09324,-0.05933 0.07205,-0.04521 0.145507,-0.089 0.218967,-0.132793 0.06922,-0.04238 0.139857,-0.08194 0.210491,-0.121491 0.01978,-0.0113 0.04238,-0.02402 0.06357,-0.03532 0.0551,-0.03108 0.11019,-0.06216 0.165285,-0.09041 0.02825,-0.01554 0.05933,-0.03249 0.089,-0.04803 0.04944,-0.02684 0.100301,-0.05227 0.149746,-0.07628 0.03108,-0.01837 0.06216,-0.03249 0.09465,-0.04944 0.06922,-0.0339 0.137031,-0.06781 0.206253,-0.09889 0.0085,-0.0056 0.01554,-0.0099 0.02543,-0.01271 0.07063,-0.03532 0.142682,-0.06781 0.216142,-0.09889 0.01413,-0.0071 0.02825,-0.01413 0.04238,-0.01978 0.07205,-0.03249 0.142682,-0.06357 0.214729,-0.09183 0.0113,-0.0056 0.02402,-0.0099 0.03673,-0.01554 0.07911,-0.03249 0.159634,-0.0664 0.240158,-0.09606 0.08476,-0.03391 0.16811,-0.06498 0.254284,-0.09465 0.08476,-0.03108 0.169523,-0.06075 0.255697,-0.089 0.08476,-0.02825 0.170935,-0.0551 0.257109,-0.08052 0.08476,-0.02543 0.170936,-0.05086 0.25711,-0.07346 0.128555,-0.03673 0.258522,-0.06922 0.387077,-0.100301 0.128555,-0.03108 0.25711,-0.05792 0.385664,-0.08194 0.172349,-0.03532 0.344697,-0.06357 0.515632,-0.08617 0.0777,-0.0113 0.155396,-0.02119 0.233094,-0.02967 0.01695,-0.0028 0.03249,-0.0042 0.04944,-0.0057 0.0777,-0.0085 0.155396,-0.01695 0.231682,-0.0226 0.08617,-0.0071 0.172348,-0.01413 0.258522,-0.01836 0.08052,-0.0042 0.162459,-0.0071 0.242983,-0.0099 0.01271,-0.0014 0.02402,-0.0014 0.0339,-0.0014 0.07911,-0.0014 0.156809,-0.0028 0.234507,-0.0014 0.07911,-0.0014 0.159634,0 0.237332,0.0014 0.02119,0.0014 0.04238,0.0014 0.06357,0.0028 0.06074,0.0014 0.122904,0.0042 0.185062,0.0085 0.02402,0.0014 0.04944,0.0014 0.07346,0.0042 0.06357,0.0028 0.125729,0.0085 0.187888,0.01413 0.01836,0 0.03532,0.0028 0.05227,0.0057 0.06781,0.0042 0.134206,0.0113 0.202015,0.01978 0.01554,0.0014 0.02967,0.0028 0.04521,0.0057 0.07063,0.0071 0.142682,0.01695 0.214729,0.02825 0.0057,0 0.0099,0.0014 0.01554,0.0028 0.07346,0.0099 0.148332,0.0226 0.220379,0.03532 0.07205,0.0113 0.142682,0.02543 0.214729,0.04097 0.0551,0.0113 0.108777,0.0226 0.163872,0.03532 0.04097,0.0071 0.08335,0.01836 0.122904,0.02825 0.01272,0.0028 0.0226,0.0042 0.03391,0.0085 0.07487,0.01836 0.148332,0.03673 0.223205,0.05792 0.07487,0.01978 0.149745,0.04097 0.224618,0.06498 0.108777,0.03249 0.217554,0.0664 0.323506,0.105952 0.05933,0.01978 0.117253,0.04097 0.175173,0.06357 0.06922,0.02684 0.141269,0.05368 0.211904,0.08335 0.06216,0.02543 0.125729,0.05227 0.187888,0.07911 0.09324,0.04097 0.186475,0.08335 0.2783,0.128554 0.06922,0.0339 0.135618,0.0664 0.203427,0.103127 0.0339,0.01695 0.06781,0.0339 0.100301,0.05227 0.06075,0.03249 0.120079,0.06498 0.180824,0.09889 0.223205,0.127142 0.442172,0.266998 0.656901,0.416743 0.06216,0.04379 0.124317,0.08617 0.18365,0.132793 0.08476,0.06075 0.169523,0.12573 0.252872,0.193539 4.577116,3.647566 5.106875,11.562869 1.185247,17.675579 -3.923041,6.114124 -3.393282,14.028014 1.183834,17.676993 0.08335,0.0664 0.16811,0.129967 0.252872,0.193538 0.05933,0.04521 0.121491,0.089 0.182237,0.131381 0.216141,0.149745 0.435108,0.291014 0.659726,0.416743 0.05933,0.03391 0.118666,0.0664 0.179412,0.09889 0.03249,0.01837 0.0664,0.03673 0.100301,0.05227 0.0664,0.03673 0.135618,0.07063 0.203427,0.103126 0.327744,0.159634 0.663964,0.295253 1.005835,0.406855 0.0664,0.0226 0.132793,0.04238 0.19919,0.06357 0.07205,0.0226 0.145507,0.04238 0.218967,0.06357 0.03956,0.0099 0.0777,0.02119 0.118666,0.02967 0.04662,0.0113 0.09465,0.02543 0.141269,0.03532 0.02825,0.0071 0.0551,0.01413 0.08476,0.01978 0.05227,0.0113 0.105952,0.0226 0.159634,0.0339 0.07063,0.01554 0.142682,0.02967 0.214729,0.04097 0.05651,0.0113 0.114428,0.02119 0.172348,0.02967 0.04379,0.0071 0.089,0.01271 0.132793,0.01978 0.0085,0.0014 0.01695,0.0028 0.02684,0.0028 0.07911,0.0113 0.159634,0.02119 0.240158,0.02967 0.0777,0.0085 0.155396,0.01695 0.234506,0.0226 0.07346,0.0071 0.14692,0.0113 0.221793,0.01554 0.06074,0.0042 0.122904,0.0071 0.185062,0.0071 0.0226,0.0014 0.04662,0.0028 0.07063,0.0028 0.05086,0.0028 0.10454,0.0028 0.155396,0.0028 0.03956,0.0014 0.0777,0.0014 0.115841,0.0014 0.04238,0 0.08476,0 0.129967,-0.0028 0.04803,0 0.09889,-0.0014 0.148333,-0.0028 0.02119,0 0.04521,-0.0014 0.06781,-0.0042 0.06922,-0.0028 0.139856,-0.0071 0.209078,-0.0099 0.01695,-0.0014 0.03391,-0.0028 0.04944,-0.0042 0.05651,-0.0028 0.113016,-0.0071 0.169523,-0.01271 0.04662,-0.0042 0.09324,-0.0085 0.139857,-0.01413 0.04238,-0.0042 0.08476,-0.0085 0.128554,-0.01413 0.03956,-0.0042 0.0777,-0.0085 0.118666,-0.01554 0.04521,-0.0042 0.09041,-0.0113 0.135619,-0.01837 0.04662,-0.0057 0.09182,-0.01272 0.137031,-0.01978 0.0777,-0.01271 0.156808,-0.02543 0.235919,-0.04097 0.05368,-0.0099 0.105952,-0.01978 0.159634,-0.03108 0.04379,-0.0085 0.08617,-0.01695 0.128555,-0.02684 0.03249,-0.0071 0.0664,-0.01413 0.100301,-0.02119 0.05651,-0.01271 0.113015,-0.02543 0.170935,-0.04097 0.02825,-0.0071 0.05651,-0.01413 0.08617,-0.02119 0.0551,-0.01271 0.11019,-0.02825 0.165285,-0.04379 0.118666,-0.03108 0.235919,-0.06498 0.354585,-0.101714 0.06075,-0.01978 0.121492,-0.03814 0.180825,-0.05792 0.01978,-0.0071 0.04097,-0.01413 0.05933,-0.01978 0.06922,-0.0226 0.137031,-0.04662 0.20484,-0.07063 0.01695,-0.0057 0.0339,-0.01271 0.04944,-0.01837 0.06074,-0.02119 0.118666,-0.04379 0.177999,-0.0664 0.04097,-0.01554 0.08335,-0.03108 0.122904,-0.04803 0.04097,-0.01554 0.07911,-0.03108 0.118666,-0.04803 0.04803,-0.01837 0.09606,-0.03814 0.142681,-0.05792 0.03814,-0.01695 0.0777,-0.03249 0.114428,-0.04944 0.04803,-0.01978 0.09465,-0.04097 0.142682,-0.06357 0.03814,-0.01695 0.07628,-0.03391 0.114428,-0.05227 0.03814,-0.01836 0.0777,-0.03673 0.115841,-0.05651 0.05368,-0.02402 0.108777,-0.05086 0.162459,-0.07911 0.0226,-0.0099 0.04379,-0.02119 0.06498,-0.03249 0.05792,-0.02825 0.114428,-0.05792 0.172348,-0.08759 0.03814,-0.01978 0.07628,-0.03955 0.113015,-0.06216 0.04803,-0.02402 0.09465,-0.04944 0.139856,-0.07629 0.03249,-0.01695 0.06357,-0.03532 0.09465,-0.05227 0.04662,-0.02543 0.09183,-0.05227 0.137031,-0.07911 0.04944,-0.02967 0.100301,-0.05933 0.149745,-0.09041 0.06498,-0.03814 0.128555,-0.0777 0.192126,-0.118666 0.0551,-0.03249 0.113015,-0.06922 0.16811,-0.105952 0.02543,-0.01554 0.04803,-0.03108 0.07205,-0.04803 0.06498,-0.04238 0.129968,-0.08476 0.193539,-0.13138 0.07911,-0.05227 0.156808,-0.107365 0.233093,-0.16246 0.07205,-0.05086 0.14127,-0.103126 0.211904,-0.155396 0.03391,-0.02543 0.06922,-0.05227 0.104539,-0.07911 0.05368,-0.04097 0.107365,-0.08194 0.158221,-0.122904 0.107365,-0.08335 0.211904,-0.169523 0.316443,-0.25711 0.04662,-0.03814 0.09183,-0.0777 0.138444,-0.118666 0.01554,-0.01271 0.03249,-0.02684 0.04662,-0.03956 0.06216,-0.05368 0.124317,-0.107365 0.186476,-0.16246 0.141269,-0.127142 0.279712,-0.258522 0.419569,-0.392728 0.03814,-0.03814 0.0777,-0.07628 0.11584,-0.11584 0.04521,-0.04379 0.09041,-0.09041 0.135618,-0.135618 0.07205,-0.07346 0.144095,-0.148333 0.216142,-0.224618 0.135618,-0.145507 0.269824,-0.29384 0.402617,-0.44641 0.05086,-0.05933 0.101713,-0.120079 0.151158,-0.179412 0.02543,-0.02825 0.05086,-0.05792 0.07346,-0.08759 0.134206,-0.159634 0.264173,-0.324918 0.392728,-0.491616 0.200602,-0.261348 0.395554,-0.533997 0.582029,-0.813709 v -0.0014 c 0.06357,-0.09183 0.125729,-0.186475 0.186475,-0.282538 7.844668,-12.228246 6.785151,-28.054615 -2.367669,-35.352572 -9.080773,-7.240038 -22.716058,-3.36079 -30.588981,8.642838"
         style="fill:#1a7fbb;fill-opacity:1;fill-rule:nonzero;stroke:none;stroke-width:1.41269016"
         id="path68" /></g></g></svg>