<svg version="1" xmlns="http://www.w3.org/2000/svg" width="341.333" height="341.333" viewBox="0 0 256.000000 256.000000"><path d="M80.5 63.9c-3.3 1.6-7.4 4.4-9.1 6.3-3.2 3.6-9.2 12.6-11 16.8-.6 1.4-1.6 3.6-2.2 5-4.2 9.5-6.5 22.3-5.9 33 .7 13.7 2.6 20.4 8.6 30 4.7 7.6 10.2 12.5 18.6 16.5 6.6 3.2 7.9 3.5 16.6 3.5 7.7 0 10.6-.5 16.4-2.7 7.8-2.9 15.6-7.6 19.8-11.8 4-4.1 3.3-4.6-2.3-1.9-15.9 7.7-31.3-4-31.3-23.7 0-8.8 1.7-13.9 7.8-24.4 5.6-9.7 6.5-12.9 6.5-22.7 0-13-3.7-20.1-13-24.8-5.6-2.9-12.2-2.5-19.5.9z"/><path d="M158 82c-1.9.5-4.8 1.2-6.5 1.6-4.4 1-14.9 6.8-18.7 10.3-1.8 1.6-4.2 3.8-5.3 4.8-3.2 2.9-8.5 10-7.9 10.6.4.3 3.1-1.4 6.3-3.9 3.1-2.4 6.6-4.4 7.8-4.4 1.2 0 2.5-.5 2.8-1 1.2-1.9 8.4-1 13.2 1.7 5.8 3.2 6.2 3.6 9.3 9.7 2 4 2.4 6.3 2.4 13.5 0 9.5-1.9 16.2-6.6 23.2-3.3 5-4.8 11.2-4.8 20.6 0 10.4 1.7 15.6 6.9 21.2 4.7 5.1 7.8 6.3 15.3 6.4 13.8 0 24.3-9.1 31.8-27.8.7-1.7 1.6-3.8 2.1-4.7.5-1 .9-2.8.9-4.1 0-1.3.4-2.7 1-3.3 2-2 3.3-20.1 2.1-29.7-.7-5.1-1.6-9.6-2.2-10.2-.5-.5-.9-1.9-.9-3.1 0-1.3-.4-2.6-1-2.9-.5-.3-1-1.3-1-2.1 0-4.4-12.6-18.4-20.8-23.2-1.2-.6-3-1.2-4-1.2s-2.2-.4-2.8-1c-1.4-1.4-15.1-2.1-19.4-1z"/></svg>