<?xml version="1.0" standalone="no"?>
<!DOCTYPE svg PUBLIC "-//W3C//DTD SVG 20010904//EN"
 "http://www.w3.org/TR/2001/REC-SVG-20010904/DTD/svg10.dtd">
<svg version="1.0" xmlns="http://www.w3.org/2000/svg"
 width="87.000000pt" height="87.000000pt" viewBox="0 0 87.000000 87.000000"
 preserveAspectRatio="xMidYMid meet">
<metadata>
Created by potrace 1.11, written by Peter Selinger 2001-2013
</metadata>
<g transform="translate(0.000000,87.000000) scale(0.100000,-0.100000)"
fill="#000000" stroke="none">
<path d="M420 731 c0 -5 16 -15 35 -21 19 -6 58 -30 86 -51 57 -45 91 -48 44
-4 -67 62 -165 108 -165 76z"/>
<path d="M325 651 c-44 -11 -92 -38 -98 -55 -9 -23 8 -27 29 -7 41 37 135 53
174 29 24 -15 39 -3 19 17 -18 18 -84 26 -124 16z"/>
<path d="M484 568 c-17 -4 -39 -17 -49 -28 -23 -25 -14 -45 34 -75 17 -11 46
-29 64 -40 39 -25 44 -44 20 -74 -28 -34 -101 -40 -148 -12 -40 23 -55 26 -55
11 0 -5 19 -19 42 -31 59 -30 142 -23 175 15 13 15 23 39 23 54 0 24 -10 34
-65 66 -85 50 -96 69 -51 90 22 10 45 14 66 9 22 -4 31 -3 27 4 -10 15 -47 20
-83 11z"/>
<path d="M300 498 c-47 -36 -75 -71 -85 -107 -10 -32 12 -24 33 14 22 38 49
63 90 81 32 14 39 33 15 41 -6 2 -30 -11 -53 -29z"/>
<path d="M324 393 c-41 -56 -56 -145 -30 -178 15 -19 15 -18 16 20 2 75 20
130 47 148 17 11 17 37 0 37 -7 0 -22 -12 -33 -27z"/>
<path d="M408 278 c-19 -56 -1 -136 36 -167 13 -11 16 -11 16 3 0 9 -7 31 -16
48 -10 18 -14 48 -12 76 2 27 -1 47 -8 49 -6 2 -14 -2 -16 -9z"/>
</g>
</svg>
