<?xml version="1.0" encoding="UTF-8" standalone="no"?>
<svg
   xmlns:dc="http://purl.org/dc/elements/1.1/"
   xmlns:cc="http://creativecommons.org/ns#"
   xmlns:rdf="http://www.w3.org/1999/02/22-rdf-syntax-ns#"
   xmlns:svg="http://www.w3.org/2000/svg"
   xmlns="http://www.w3.org/2000/svg"
   version="1.1"
   id="svg2"
   xml:space="preserve"
   width="241.95316"
   height="58.7836"
   viewBox="0 0 241.95316 58.7836"><metadata
     id="metadata8"><rdf:RDF><cc:Work
         rdf:about=""><dc:format>image/svg+xml</dc:format><dc:type
           rdf:resource="http://purl.org/dc/dcmitype/StillImage" /><dc:title></dc:title></cc:Work></rdf:RDF></metadata><defs
     id="defs6"><clipPath
   clipPathUnits="userSpaceOnUse"
   id="clipPath22"><path
     d="M 0,792 H 612 V 0 H 0 Z"
     id="path20" /></clipPath><clipPath
   clipPathUnits="userSpaceOnUse"
   id="clipPath52"><path
     d="M 0,792 H 612 V 0 H 0 Z"
     id="path50" /></clipPath><clipPath
   clipPathUnits="userSpaceOnUse"
   id="clipPath80"><path
     d="M 0,792 H 612 V 0 H 0 Z"
     id="path78" /></clipPath><clipPath
   clipPathUnits="userSpaceOnUse"
   id="clipPath108"><path
     d="M 0,792 H 612 V 0 H 0 Z"
     id="path106" /></clipPath>



</defs><g
     id="g5158"><g
       aria-label="Synergy Works Group"
       style="font-variant:normal;font-weight:normal;font-stretch:normal;font-size:28px;font-family:Righteous;-inkscape-font-specification:Righteous-Regular;writing-mode:lr-tb;fill:#f0ede6;fill-opacity:1;fill-rule:nonzero;stroke:none;stroke-width:1.33333325"
       id="text44"
       transform="translate(-11.480567,-15.780327)"><path
         d="m 117.62219,21.659233 q 0,-1.216797 0.46485,-2.283203 0.46484,-1.066406 1.25781,-1.859375 0.80664,-0.806641 1.87305,-1.271484 1.0664,-0.464844 2.2832,-0.464844 h 8.99609 v 3.923828 h -8.99609 q -0.41016,0 -0.76563,0.150391 -0.35547,0.15039 -0.6289,0.423828 -0.25977,0.259765 -0.41016,0.615234 -0.15039,0.355469 -0.15039,0.765625 0,0.410156 0.15039,0.779297 0.15039,0.355469 0.41016,0.628906 0.27343,0.259766 0.6289,0.410156 0.35547,0.150391 0.76563,0.150391 h 3.92383 q 1.21679,0 2.2832,0.464844 1.08008,0.451172 1.87305,1.257812 0.80664,0.792969 1.25781,1.873047 0.46484,1.066406 0.46484,2.283203 0,1.216797 -0.46484,2.283203 -0.45117,1.066407 -1.25781,1.873047 -0.79297,0.792969 -1.87305,1.257813 -1.06641,0.464844 -2.2832,0.464844 h -8.70899 v -3.923829 h 8.70899 q 0.41015,0 0.76562,-0.15039 0.35547,-0.150391 0.61524,-0.410156 0.27343,-0.273438 0.42382,-0.628907 0.15039,-0.355468 0.15039,-0.765625 0,-0.410156 -0.15039,-0.765625 -0.15039,-0.355468 -0.42382,-0.615234 -0.25977,-0.273438 -0.61524,-0.423828 -0.35547,-0.150391 -0.76562,-0.150391 h -3.92383 q -1.2168,0 -2.2832,-0.464844 -1.06641,-0.464843 -1.87305,-1.257812 -0.79297,-0.806641 -1.25781,-1.873047 -0.46485,-1.080078 -0.46485,-2.296875 z"
         style="fill:#f0ede6;fill-opacity:1;stroke-width:1.33333325"
         id="path3926" /><path
         d="m 138.86949,40.963921 v -3.759766 l 2.07813,0.02734 q 0.54687,0 1.05273,-0.177735 0.50586,-0.177734 0.92969,-0.492187 0.4375,-0.314453 0.76562,-0.751953 0.32813,-0.423828 0.53321,-0.929688 -0.61524,0.259766 -1.25782,0.519531 -0.6289,0.259766 -1.27148,0.259766 -1.35352,0 -2.54297,-0.478516 -1.18945,-0.478515 -2.0918,-1.353515 -0.88867,-0.888672 -1.4082,-2.146485 -0.50586,-1.271484 -0.50586,-2.84375 v -8.09375 h 3.71875 v 8.09375 q 0,0.779297 0.21875,1.367188 0.23242,0.574219 0.61524,0.970703 0.38281,0.382813 0.88867,0.574219 0.51953,0.191406 1.10742,0.191406 0.57422,0 1.08008,-0.259766 0.51953,-0.273437 0.90234,-0.710937 0.38281,-0.4375 0.60156,-0.984375 0.21875,-0.560547 0.21875,-1.148438 v -8.09375 h 3.75977 v 12.796875 q -0.0137,1.544922 -0.60156,2.898438 -0.58789,1.353516 -1.61328,2.365234 -1.01172,1.011719 -2.36524,1.59961 -1.35351,0.58789 -2.89844,0.58789 z"
         style="fill:#f0ede6;fill-opacity:1;stroke-width:1.33333325"
         id="path3928" /><path
         d="m 154.83856,35.385796 h -3.73242 V 20.743217 h 0.90234 l 1.23047,1.421875 q 0.90235,-0.820312 2.03711,-1.257812 1.14844,-0.451172 2.39258,-0.451172 1.33984,0 2.5293,0.519531 1.18945,0.50586 2.07812,1.408203 0.88867,0.888672 1.39453,2.091797 0.51953,1.189453 0.51953,2.542969 v 8.367188 h -3.73242 v -8.367188 q 0,-0.574219 -0.21875,-1.080078 -0.21875,-0.519531 -0.60156,-0.902344 -0.38281,-0.382812 -0.88867,-0.601562 -0.50586,-0.21875 -1.08008,-0.21875 -0.58789,0 -1.10742,0.21875 -0.51953,0.21875 -0.90235,0.601562 -0.38281,0.382813 -0.60156,0.902344 -0.21875,0.505859 -0.21875,1.080078 z"
         style="fill:#f0ede6;fill-opacity:1;stroke-width:1.33333325"
         id="path3930" /><path
         d="m 172.66638,31.803764 q 0.21875,0.06836 0.4375,0.0957 0.21875,0.01367 0.4375,0.01367 0.54688,0 1.05274,-0.15039 0.50586,-0.150391 0.94336,-0.423828 0.45117,-0.28711 0.79296,-0.683594 0.35547,-0.410156 0.57422,-0.902344 l 2.73438,2.748047 q -0.51953,0.738281 -1.20313,1.326172 -0.66992,0.58789 -1.46289,0.998047 -0.77929,0.410156 -1.65429,0.615234 -0.86133,0.21875 -1.77735,0.21875 -1.54492,0 -2.91211,-0.574219 -1.35351,-0.574218 -2.3789,-1.599609 -1.01172,-1.025391 -1.59961,-2.433594 -0.58789,-1.421875 -0.58789,-3.117187 0,-1.736328 0.58789,-3.171875 0.58789,-1.435547 1.59961,-2.447266 1.02539,-1.011719 2.3789,-1.572266 1.36719,-0.560546 2.91211,-0.560546 0.91602,0 1.79102,0.21875 0.875,0.21875 1.65429,0.628906 0.79297,0.410156 1.47657,1.011719 0.68359,0.58789 1.20312,1.326171 z m 1.91406,-7.697265 q -0.25976,-0.0957 -0.51953,-0.123047 -0.24609,-0.02734 -0.51953,-0.02734 -0.76562,0 -1.44922,0.287109 -0.66992,0.273438 -1.17578,0.792969 -0.49219,0.519531 -0.7793,1.257813 -0.2871,0.724609 -0.2871,1.640625 0,0.205078 0.0137,0.464843 0.0273,0.259766 0.0684,0.533204 0.0547,0.259765 0.12304,0.505859 0.0684,0.246094 0.17774,0.4375 z"
         style="fill:#f0ede6;fill-opacity:1;stroke-width:1.33333325"
         id="path3932" /><path
         d="m 185.27457,35.385796 h -3.73243 V 20.743217 h 0.90235 l 1.23047,1.736329 q 0.90234,-0.820313 2.05078,-1.257813 1.14844,-0.451172 2.3789,-0.451172 h 3.29493 v 3.71875 h -3.29493 q -0.58789,0 -1.10742,0.21875 -0.51953,0.21875 -0.90234,0.601563 -0.38281,0.382812 -0.60156,0.902343 -0.21875,0.519532 -0.21875,1.107422 z"
         style="fill:#f0ede6;fill-opacity:1;stroke-width:1.33333325"
         id="path3934" /><path
         d="m 203.27771,27.934624 q 0,-0.765625 -0.30078,-1.476563 -0.28711,-0.724609 -0.79297,-1.271484 -0.50586,-0.560547 -1.18945,-0.888672 -0.66993,-0.341797 -1.43555,-0.341797 -0.76563,0 -1.44922,0.259766 -0.66992,0.259765 -1.17578,0.765625 -0.49219,0.505859 -0.7793,1.257812 -0.28711,0.738281 -0.28711,1.695313 0,0.916015 0.28711,1.654297 0.28711,0.724609 0.7793,1.24414 0.50586,0.519531 1.17578,0.806641 0.68359,0.273437 1.44922,0.273437 0.76562,0 1.43555,-0.328125 0.68359,-0.341797 1.18945,-0.888672 0.50586,-0.560546 0.79297,-1.271484 0.30078,-0.724609 0.30078,-1.490234 z m 3.75977,5.605468 q 0,1.544922 -0.5879,2.898438 -0.58789,1.353516 -1.61328,2.365234 -1.01172,1.011719 -2.3789,1.59961 -1.35352,0.58789 -2.89844,0.58789 l -1.87305,-0.02734 v -3.732422 l 1.84571,0.02734 q 0.875,0 1.49023,-0.232421 0.61523,-0.21875 1.03906,-0.615235 0.42383,-0.382812 0.66992,-0.888672 0.25977,-0.505859 0.41016,-1.066406 -0.21875,0.355469 -0.62891,0.587891 -0.41015,0.21875 -0.91601,0.355468 -0.49219,0.150391 -1.03906,0.205079 -0.53321,0.05469 -0.99805,0.05469 -1.54492,0 -2.91211,-0.533203 -1.35352,-0.533203 -2.37891,-1.517578 -1.01171,-0.998047 -1.59961,-2.433594 -0.58789,-1.435547 -0.58789,-3.240234 0,-1.654297 0.58789,-3.076172 0.5879,-1.421875 1.59961,-2.460938 1.02539,-1.039062 2.37891,-1.626953 1.36719,-0.58789 2.91211,-0.58789 0.71094,0 1.4082,0.177734 0.69727,0.177734 1.35352,0.492187 0.65625,0.314454 1.24414,0.738282 0.60156,0.423828 1.12109,0.916015 l 1.44922,-1.736328 h 0.90235 z"
         style="fill:#f0ede6;fill-opacity:1;stroke-width:1.33333325"
         id="path3936" /><path
         d="m 213.4111,40.963921 v -3.759766 l 2.07813,0.02734 q 0.54687,0 1.05273,-0.177735 0.50586,-0.177734 0.92969,-0.492187 0.4375,-0.314453 0.76562,-0.751953 0.32813,-0.423828 0.53321,-0.929688 -0.61524,0.259766 -1.25782,0.519531 -0.6289,0.259766 -1.27148,0.259766 -1.35352,0 -2.54297,-0.478516 -1.18945,-0.478515 -2.0918,-1.353515 -0.88867,-0.888672 -1.4082,-2.146485 -0.50586,-1.271484 -0.50586,-2.84375 v -8.09375 h 3.71875 v 8.09375 q 0,0.779297 0.21875,1.367188 0.23242,0.574219 0.61524,0.970703 0.38281,0.382813 0.88867,0.574219 0.51953,0.191406 1.10742,0.191406 0.57422,0 1.08008,-0.259766 0.51953,-0.273437 0.90234,-0.710937 0.38281,-0.4375 0.60156,-0.984375 0.21875,-0.560547 0.21875,-1.148438 v -8.09375 h 3.75977 v 12.796875 q -0.0137,1.544922 -0.60156,2.898438 -0.58789,1.353516 -1.61328,2.365234 -1.01172,1.011719 -2.36524,1.59961 -1.35351,0.58789 -2.89844,0.58789 z"
         style="fill:#f0ede6;fill-opacity:1;stroke-width:1.33333325"
         id="path3938" /><path
         d="m 108.37772,63.380333 q 0,1.216797 -0.46485,2.296875 -0.45117,1.066406 -1.25781,1.873047 -0.79297,0.792969 -1.87305,1.257812 -1.0664,0.451172 -2.2832,0.451172 -1.09375,0 -2.10547,-0.382812 -0.998046,-0.382813 -1.804686,-1.121094 -0.806641,0.738281 -1.81836,1.121094 -1.011719,0.382812 -2.105469,0.382812 -1.216796,0 -2.296875,-0.451172 -1.066406,-0.464843 -1.873046,-1.257812 -0.792969,-0.806641 -1.257813,-1.873047 -0.451172,-1.080078 -0.451172,-2.296875 v -14 h 3.923828 v 14 q 0,0.410156 0.150391,0.779297 0.150391,0.355469 0.410156,0.628906 0.273438,0.259766 0.628906,0.410156 0.355469,0.150391 0.765625,0.150391 0.410157,0 0.765625,-0.150391 0.355469,-0.15039 0.615235,-0.410156 0.273437,-0.273437 0.423828,-0.628906 0.150391,-0.369141 0.150391,-0.779297 v -14 h 3.923826 v 14 q 0,0.410156 0.15039,0.779297 0.15039,0.355469 0.41016,0.628906 0.27344,0.259766 0.6289,0.410156 0.35547,0.150391 0.76563,0.150391 0.41016,0 0.76562,-0.150391 0.35547,-0.15039 0.61524,-0.410156 0.27344,-0.273437 0.42383,-0.628906 0.16406,-0.369141 0.16406,-0.779297 v -14 h 3.91016 z"
         style="fill:#f0ede6;fill-opacity:1;stroke-width:1.33333325"
         id="path3940" /><path
         d="m 125.44054,61.53463 q 0,1.640625 -0.58789,3.0625 -0.58789,1.408203 -1.59961,2.447265 -1.01172,1.025391 -2.37891,1.626954 -1.35352,0.58789 -2.91211,0.58789 -1.54492,0 -2.91211,-0.58789 -1.35351,-0.601563 -2.3789,-1.626954 -1.01172,-1.039062 -1.59961,-2.447265 -0.58789,-1.421875 -0.58789,-3.0625 0,-1.667969 0.58789,-3.089844 0.58789,-1.421875 1.59961,-2.447266 1.02539,-1.039062 2.3789,-1.626953 1.36719,-0.58789 2.91211,-0.58789 1.55859,0 2.91211,0.560547 1.36719,0.546875 2.37891,1.572265 1.01172,1.011719 1.59961,2.447266 0.58789,1.421875 0.58789,3.171875 z m -3.75977,0 q 0,-0.902344 -0.30078,-1.626953 -0.28711,-0.738282 -0.79297,-1.257813 -0.50586,-0.533203 -1.18945,-0.80664 -0.66992,-0.28711 -1.43555,-0.28711 -0.76562,0 -1.44922,0.28711 -0.66992,0.273437 -1.17578,0.80664 -0.49219,0.519531 -0.7793,1.257813 -0.28711,0.724609 -0.28711,1.626953 0,0.847656 0.28711,1.572265 0.28711,0.72461 0.7793,1.257813 0.50586,0.533203 1.17578,0.847656 0.6836,0.300781 1.44922,0.300781 0.76563,0 1.43555,-0.287109 0.68359,-0.287109 1.18945,-0.806641 0.50586,-0.519531 0.79297,-1.257812 0.30078,-0.738281 0.30078,-1.626953 z"
         style="fill:#f0ede6;fill-opacity:1;stroke-width:1.33333325"
         id="path3942" /><path
         d="m 131.23457,68.985802 h -3.73242 V 54.343224 h 0.90235 l 1.23046,1.736328 q 0.90235,-0.820313 2.05079,-1.257813 1.14843,-0.451172 2.3789,-0.451172 h 3.29492 v 3.71875 h -3.29492 q -0.58789,0 -1.10742,0.21875 -0.51953,0.21875 -0.90234,0.601563 -0.38282,0.382812 -0.60157,0.902344 -0.21875,0.519531 -0.21875,1.107421 z"
         style="fill:#f0ede6;fill-opacity:1;stroke-width:1.33333325"
         id="path3944" /><path
         d="m 142.85391,68.985802 h -3.75976 V 48.519005 h 3.75976 v 12.90625 l 5.56446,-7.054688 h 4.29296 l -4.85351,6.097657 4.85351,8.517578 h -4.29296 l -2.9668,-5.31836 -2.59766,3.445313 z"
         style="fill:#f0ede6;fill-opacity:1;stroke-width:1.33333325"
         id="path3946" /><path
         d="m 162.2252,68.985802 h -8.53125 v -3.71875 h 8.53125 q 0.38282,0 0.65625,-0.273438 0.27344,-0.273437 0.27344,-0.65625 0,-0.396484 -0.27344,-0.519531 -0.27343,-0.123047 -0.65625,-0.123047 h -3.88281 q -0.9707,0 -1.81836,-0.369141 -0.84765,-0.36914 -1.47656,-0.998046 -0.62891,-0.642579 -0.99805,-1.490235 -0.35547,-0.847656 -0.35547,-1.818359 0,-0.970703 0.35547,-1.81836 0.36914,-0.847656 0.99805,-1.476562 0.62891,-0.628906 1.47656,-0.984375 0.84766,-0.369141 1.81836,-0.369141 h 7.56055 v 3.71875 h -7.56055 q -0.38281,0 -0.65625,0.273438 -0.27344,0.273437 -0.27344,0.65625 0,0.396484 0.27344,0.683594 0.27344,0.273437 0.65625,0.273437 h 3.88281 q 0.95704,0 1.80469,0.328125 0.84766,0.314453 1.47656,0.888672 0.62891,0.574219 0.99805,1.380859 0.36914,0.806641 0.36914,1.763672 0,0.970703 -0.36914,1.81836 -0.36914,0.833984 -0.99805,1.476562 -0.6289,0.628906 -1.47656,0.998047 -0.84765,0.355469 -1.80469,0.355469 z"
         style="fill:#f0ede6;fill-opacity:1;stroke-width:1.33333325"
         id="path3948" /><path
         d="m 192.69424,67.00338 q -1.36718,1.162109 -3.04882,1.791015 -1.68164,0.615235 -3.5,0.615235 -1.39453,0 -2.69336,-0.369141 -1.28516,-0.355469 -2.40625,-1.011719 -1.1211,-0.669921 -2.05078,-1.585937 -0.92969,-0.929688 -1.58594,-2.050781 -0.65625,-1.134766 -1.02539,-2.433594 -0.35547,-1.298828 -0.35547,-2.693359 0,-1.394532 0.35547,-2.679688 0.36914,-1.285156 1.02539,-2.40625 0.65625,-1.134766 1.58594,-2.050781 0.92968,-0.929688 2.05078,-1.585938 1.12109,-0.65625 2.40625,-1.011718 1.29883,-0.369141 2.69336,-0.369141 1.81836,0 3.5,0.628906 1.68164,0.615235 3.04882,1.777344 l -2.05078,3.417969 q -0.88867,-0.902344 -2.05078,-1.408203 -1.16211,-0.519532 -2.44726,-0.519532 -1.28516,0 -2.41993,0.492188 -1.12109,0.492187 -1.96875,1.339844 -0.84765,0.833984 -1.33984,1.96875 -0.49219,1.121093 -0.49219,2.40625 0,1.298828 0.49219,2.433593 0.49219,1.134766 1.33984,1.982422 0.84766,0.847656 1.96875,1.339844 1.13477,0.492187 2.41993,0.492187 0.73828,0 1.43554,-0.177734 0.69727,-0.177734 1.32618,-0.492187 v -5.578125 h 3.7871 z"
         style="fill:#f0ede6;fill-opacity:1;stroke-width:1.33333325"
         id="path3950" /><path
         d="m 198.91336,68.985802 h -3.73242 V 54.343224 h 0.90234 l 1.23047,1.736328 q 0.90234,-0.820313 2.05078,-1.257813 1.14844,-0.451172 2.37891,-0.451172 h 3.29492 v 3.71875 h -3.29492 q -0.58789,0 -1.10742,0.21875 -0.51953,0.21875 -0.90235,0.601563 -0.38281,0.382812 -0.60156,0.902344 -0.21875,0.519531 -0.21875,1.107421 z"
         style="fill:#f0ede6;fill-opacity:1;stroke-width:1.33333325"
         id="path3952" /><path
         d="m 220.65173,61.53463 q 0,1.640625 -0.58789,3.0625 -0.58789,1.408203 -1.59961,2.447265 -1.01172,1.025391 -2.3789,1.626954 -1.35352,0.58789 -2.91211,0.58789 -1.54492,0 -2.91211,-0.58789 -1.35352,-0.601563 -2.37891,-1.626954 -1.01172,-1.039062 -1.59961,-2.447265 -0.58789,-1.421875 -0.58789,-3.0625 0,-1.667969 0.58789,-3.089844 0.58789,-1.421875 1.59961,-2.447266 1.02539,-1.039062 2.37891,-1.626953 1.36719,-0.58789 2.91211,-0.58789 1.55859,0 2.91211,0.560547 1.36718,0.546875 2.3789,1.572265 1.01172,1.011719 1.59961,2.447266 0.58789,1.421875 0.58789,3.171875 z m -3.75976,0 q 0,-0.902344 -0.30078,-1.626953 -0.28711,-0.738282 -0.79297,-1.257813 -0.50586,-0.533203 -1.18946,-0.80664 -0.66992,-0.28711 -1.43554,-0.28711 -0.76563,0 -1.44922,0.28711 -0.66992,0.273437 -1.17578,0.80664 -0.49219,0.519531 -0.7793,1.257813 -0.28711,0.724609 -0.28711,1.626953 0,0.847656 0.28711,1.572265 0.28711,0.72461 0.7793,1.257813 0.50586,0.533203 1.17578,0.847656 0.68359,0.300781 1.44922,0.300781 0.76562,0 1.43554,-0.287109 0.6836,-0.287109 1.18946,-0.806641 0.50586,-0.519531 0.79297,-1.257812 0.30078,-0.738281 0.30078,-1.626953 z"
         style="fill:#f0ede6;fill-opacity:1;stroke-width:1.33333325"
         id="path3954" /><path
         d="m 233.47311,67.276817 q -0.45117,0.410157 -0.9707,0.779297 -0.50586,0.355469 -1.06641,0.628906 -0.56054,0.259766 -1.1621,0.410157 -0.5879,0.164062 -1.20313,0.164062 -1.35352,0 -2.54297,-0.478515 -1.18945,-0.478516 -2.0918,-1.353516 -0.88867,-0.888672 -1.4082,-2.146484 -0.50586,-1.271485 -0.50586,-2.84375 v -8.09375 h 3.71875 v 8.09375 q 0,0.738281 0.21875,1.326171 0.23242,0.574219 0.61524,0.970704 0.38281,0.396484 0.88867,0.601562 0.51953,0.205078 1.10742,0.205078 0.57422,0 1.08008,-0.259765 0.51953,-0.273438 0.90234,-0.710938 0.38281,-0.4375 0.60156,-0.984375 0.21875,-0.560547 0.21875,-1.148437 v -8.09375 h 3.73243 v 14.642578 h -0.90235 z"
         style="fill:#f0ede6;fill-opacity:1;stroke-width:1.33333325"
         id="path3956" /><path
         d="m 242.20911,74.563927 h -3.75977 V 54.343224 h 0.90234 l 1.49024,1.763671 q 0.50586,-0.478515 1.10742,-0.902343 0.60156,-0.423828 1.24414,-0.72461 0.65625,-0.314453 1.35352,-0.492187 0.69726,-0.177735 1.4082,-0.177735 1.54492,0 2.89844,0.560547 1.36719,0.546875 2.3789,1.558594 1.02539,1.011719 1.61329,2.447266 0.58789,1.421875 0.58789,3.158203 0,1.804687 -0.58789,3.253906 -0.5879,1.435547 -1.61329,2.447266 -1.01171,0.998047 -2.3789,1.53125 -1.35352,0.533203 -2.89844,0.533203 -0.49219,0 -0.98437,-0.109375 -0.47852,-0.109375 -0.95704,-0.28711 -0.46484,-0.191406 -0.92968,-0.423828 -0.45118,-0.232422 -0.875,-0.478515 z m 7.47851,-13.029297 q 0,-0.929688 -0.30078,-1.667969 -0.28711,-0.738281 -0.79297,-1.244141 -0.50586,-0.519531 -1.18945,-0.792968 -0.68359,-0.273438 -1.44922,-0.273438 -0.76562,0 -1.44922,0.273438 -0.66992,0.273437 -1.17578,0.792968 -0.50586,0.50586 -0.80664,1.244141 -0.28711,0.738281 -0.28711,1.667969 0,0.888672 0.28711,1.626953 0.30078,0.738281 0.80664,1.257812 0.50586,0.519532 1.17578,0.806641 0.6836,0.287109 1.44922,0.287109 0.76563,0 1.44922,-0.287109 0.68359,-0.287109 1.18945,-0.806641 0.50586,-0.519531 0.79297,-1.257812 0.30078,-0.738281 0.30078,-1.626953 z"
         style="fill:#f0ede6;fill-opacity:1;stroke-width:1.33333325"
         id="path3958" /></g><g
       id="g5130"><g
         transform="matrix(1.4126902,0,0,-1.4126902,19.967571,8.909178)"
         id="g54"><path
           id="path56"
           style="fill:#84bec8;fill-opacity:1;fill-rule:nonzero;stroke:none"
           d="m 0,0 c 1.203,-1.099 0.792,-3.877 -0.919,-6.206 -1.711,-2.329 -4.073,-3.327 -5.277,-2.228 -1.203,1.098 -0.792,3.877 0.919,6.206 C -3.566,0.101 -1.204,1.099 0,0" /></g><g
         transform="matrix(1.4126902,0,0,-1.4126902,46.098102,50.14066)"
         id="g62"><path
           id="path64"
           style="fill:#1a7fbb;fill-opacity:1;fill-rule:nonzero;stroke:none"
           d="M 0,0 C -1.265,1.008 -1.018,3.811 0.553,6.26 2.125,8.708 4.423,9.875 5.688,8.867 6.954,7.858 6.706,5.056 5.135,2.607 3.564,0.159 1.265,-1.009 0,0" /></g><g
         transform="translate(-11.480567,-15.78031)"
         id="g4787"><path
           id="path60"
           style="fill:#84bec8;fill-opacity:1;fill-rule:nonzero;stroke:none;stroke-width:1.41269016"
           d="m 23.499637,29.0814 c 1.185247,-1.613292 3.123458,-2.02721 4.329895,-0.925312 1.206438,1.101898 1.226216,3.30287 0.04097,4.914749 -1.185247,1.61188 -3.123458,2.027211 -4.329895,0.925312 -1.20785,-1.101898 -1.224802,-3.302869 -0.04097,-4.914749 M 49.12725,52.930436 c -0.20484,0.266998 -0.413918,0.522695 -0.63006,0.771329 -0.07205,0.08335 -0.14692,0.166697 -0.22038,0.248633 -0.0664,0.07205 -0.132792,0.142682 -0.199189,0.211904 -0.0339,0.03814 -0.06781,0.07346 -0.104539,0.11019 -0.04379,0.04662 -0.09041,0.09324 -0.135618,0.139856 -0.141269,0.142682 -0.283951,0.281125 -0.428045,0.416744 -0.07487,0.06922 -0.151158,0.139856 -0.228856,0.207665 -0.05368,0.04803 -0.107365,0.09606 -0.16246,0.144094 -0.103126,0.09041 -0.209078,0.179412 -0.315029,0.264174 -0.07205,0.06216 -0.148333,0.121491 -0.223206,0.179411 -0.06922,0.05509 -0.138443,0.108777 -0.207665,0.159634 -0.01413,0.0113 -0.02825,0.02119 -0.04238,0.03249 -0.04803,0.03532 -0.09747,0.07205 -0.145507,0.107364 -0.114428,0.08335 -0.228856,0.165285 -0.346109,0.244396 -0.07487,0.04944 -0.149745,0.100301 -0.22603,0.149745 -0.06216,0.04238 -0.12573,0.08194 -0.190713,0.121491 -0.02684,0.01837 -0.0551,0.03532 -0.08335,0.05227 -0.05792,0.03673 -0.115841,0.07346 -0.175174,0.107364 -0.01978,0.0113 -0.03956,0.02402 -0.05933,0.0339 -0.05792,0.03532 -0.11584,0.06922 -0.175173,0.101714 -0.02967,0.01695 -0.05933,0.03532 -0.09041,0.05086 -0.04944,0.02825 -0.101713,0.05651 -0.15257,0.08335 -0.03249,0.01836 -0.06498,0.03532 -0.09748,0.05227 -0.07487,0.03956 -0.151158,0.0777 -0.22603,0.11584 -0.07205,0.03673 -0.144095,0.07205 -0.217554,0.105952 -0.02119,0.0099 -0.04238,0.02119 -0.06498,0.03108 -0.05651,0.02684 -0.113015,0.05227 -0.169523,0.0777 -0.03108,0.01413 -0.06216,0.02825 -0.09324,0.04238 -0.05086,0.0226 -0.101713,0.04379 -0.153983,0.0664 -0.03108,0.01413 -0.06357,0.02684 -0.09606,0.03956 -0.07205,0.02967 -0.141269,0.05792 -0.213316,0.08476 -0.0071,0.0042 -0.01554,0.0085 -0.02402,0.0113 -0.07346,0.02825 -0.148332,0.05651 -0.221792,0.08194 -0.01413,0.0071 -0.02967,0.01271 -0.04521,0.01695 -0.07205,0.02684 -0.145507,0.05227 -0.218967,0.07628 -0.0113,0.0042 -0.02402,0.0085 -0.03673,0.01271 -0.08194,0.02825 -0.163872,0.0551 -0.245808,0.0777 -0.08617,0.02825 -0.170936,0.05227 -0.258522,0.07629 -0.08759,0.02543 -0.173761,0.04803 -0.261348,0.07063 -0.08617,0.02119 -0.172348,0.04238 -0.259935,0.06075 -0.08617,0.01978 -0.173761,0.03956 -0.261348,0.05651 -0.13138,0.02684 -0.261347,0.04944 -0.391315,0.07063 -0.13138,0.02119 -0.261348,0.03956 -0.391315,0.0551 -0.173761,0.02119 -0.347522,0.03673 -0.51987,0.04662 -0.0777,0.0071 -0.155396,0.0113 -0.233094,0.01413 -0.01836,0.0014 -0.0339,0.0014 -0.04944,0.0014 -0.07911,0.0028 -0.156809,0.0057 -0.234507,0.0057 -0.08617,0 -0.170935,0 -0.257109,-0.0014 -0.08194,0 -0.16246,-0.0028 -0.244396,-0.0071 -0.0113,0 -0.0226,0 -0.0339,-0.0014 -0.0777,-0.0042 -0.156809,-0.0085 -0.233094,-0.01413 -0.08052,-0.0057 -0.159634,-0.01271 -0.237332,-0.01978 -0.02119,-0.0014 -0.04238,-0.0042 -0.06216,-0.0071 -0.06216,-0.0071 -0.122904,-0.01271 -0.185062,-0.02119 -0.02402,-0.0042 -0.04944,-0.0071 -0.07346,-0.0113 -0.06216,-0.0071 -0.124317,-0.01554 -0.186475,-0.02684 -0.01837,-0.0014 -0.03532,-0.0057 -0.05227,-0.0085 -0.0664,-0.0113 -0.132792,-0.0226 -0.200602,-0.03532 -0.01413,-0.0028 -0.02967,-0.0042 -0.04379,-0.0085 -0.07063,-0.01413 -0.141269,-0.02825 -0.213316,-0.04521 -0.0057,0 -0.0099,-0.0014 -0.01413,-0.0028 -0.07487,-0.01554 -0.14692,-0.03249 -0.218967,-0.05227 -0.07063,-0.01695 -0.141269,-0.03391 -0.211904,-0.0551 -0.05368,-0.01554 -0.107364,-0.03249 -0.161046,-0.04803 -0.04097,-0.0113 -0.08052,-0.02402 -0.121492,-0.03814 -0.0113,-0.0014 -0.02119,-0.0057 -0.03249,-0.0099 -0.07346,-0.0226 -0.14692,-0.04803 -0.218967,-0.07346 -0.07487,-0.02543 -0.148333,-0.05227 -0.221793,-0.08194 -0.105952,-0.04097 -0.211903,-0.08194 -0.316442,-0.129968 -0.05651,-0.02401 -0.113016,-0.04803 -0.169523,-0.07487 -0.06922,-0.03108 -0.138444,-0.06357 -0.206253,-0.09889 -0.06216,-0.03108 -0.122904,-0.06216 -0.18365,-0.09324 -0.09183,-0.04662 -0.180824,-0.09606 -0.271236,-0.148333 -0.0664,-0.03814 -0.13138,-0.07628 -0.196364,-0.117253 -0.03249,-0.01837 -0.06498,-0.03814 -0.09606,-0.06074 -0.05933,-0.03532 -0.117253,-0.07346 -0.175174,-0.111603 -0.216141,-0.141269 -0.426632,-0.298078 -0.632885,-0.463362 -0.05792,-0.04662 -0.117253,-0.09465 -0.173761,-0.144095 -0.08052,-0.06922 -0.161047,-0.138443 -0.24157,-0.211903 -4.353911,-3.973898 -4.418895,-11.910391 -0.148332,-17.725024 4.273388,-5.816046 4.208404,-13.751127 -0.145507,-17.725024 -0.07911,-0.07205 -0.159634,-0.142682 -0.24157,-0.210491 -0.05651,-0.05086 -0.115841,-0.09748 -0.173761,-0.145507 -0.206253,-0.165285 -0.418157,-0.320681 -0.634298,-0.463363 -0.05651,-0.03814 -0.114428,-0.07487 -0.173761,-0.111602 -0.03108,-0.02119 -0.06357,-0.04097 -0.09606,-0.06075 -0.06498,-0.03956 -0.129968,-0.07911 -0.196364,-0.117253 -0.319268,-0.182237 -0.645599,-0.341871 -0.98182,-0.478902 -0.06357,-0.02684 -0.128554,-0.05227 -0.193538,-0.0777 -0.07205,-0.02684 -0.142682,-0.05368 -0.216142,-0.07911 -0.03814,-0.01271 -0.07628,-0.02543 -0.11584,-0.03814 -0.04521,-0.01554 -0.09183,-0.03249 -0.138444,-0.04662 -0.02825,-0.0085 -0.0551,-0.01695 -0.08476,-0.02402 -0.05227,-0.01695 -0.103127,-0.03108 -0.155396,-0.04662 -0.07064,-0.01978 -0.141269,-0.03956 -0.213317,-0.05651 -0.05651,-0.01554 -0.113015,-0.02967 -0.169522,-0.04238 -0.04379,-0.0099 -0.08759,-0.01978 -0.131381,-0.02825 -0.0085,-0.0028 -0.01836,-0.0042 -0.02825,-0.0056 -0.0777,-0.01695 -0.156809,-0.03249 -0.23592,-0.04803 -0.0777,-0.01271 -0.155396,-0.02684 -0.233094,-0.03814 -0.07346,-0.01272 -0.146919,-0.0226 -0.220379,-0.03108 -0.06075,-0.0099 -0.122904,-0.01695 -0.185063,-0.0226 -0.02119,-0.0028 -0.04521,-0.0042 -0.06922,-0.0057 -0.05086,-0.0071 -0.104539,-0.0113 -0.156808,-0.01554 -0.03814,-0.0042 -0.07628,-0.0071 -0.113015,-0.0085 -0.04379,-0.0042 -0.08617,-0.0057 -0.131381,-0.0071 -0.04803,-0.0042 -0.09889,-0.0071 -0.146919,-0.0085 -0.0226,-0.0014 -0.04521,-0.0014 -0.06922,-0.0014 -0.06922,-0.0028 -0.139856,-0.0028 -0.207666,-0.0042 -0.01836,0 -0.0339,-0.0014 -0.05086,0 -0.05792,-0.0014 -0.113016,-0.0014 -0.169523,0.0014 -0.04662,0 -0.09324,0 -0.139857,0.0028 -0.04379,0.0014 -0.08617,0.0028 -0.129967,0.0056 -0.03814,0 -0.0777,0.0028 -0.118666,0.0057 -0.04521,0.0014 -0.09183,0.0057 -0.137031,0.0085 -0.04662,0.0014 -0.09183,0.0057 -0.138444,0.0113 -0.0777,0.0056 -0.156808,0.01271 -0.235919,0.0226 -0.0551,0.0056 -0.108777,0.01271 -0.162459,0.01836 -0.04379,0.0056 -0.08759,0.0113 -0.129968,0.01836 -0.03249,0.0042 -0.0664,0.0099 -0.100301,0.01413 -0.05792,0.0085 -0.11584,0.01695 -0.173761,0.02825 -0.02825,0.0042 -0.05792,0.0099 -0.08759,0.01554 -0.05509,0.0085 -0.111603,0.01978 -0.166698,0.03108 -0.120079,0.0226 -0.240157,0.04803 -0.360236,0.07628 -0.06216,0.01413 -0.122904,0.02825 -0.185062,0.04379 -0.01978,0.0057 -0.03956,0.0099 -0.05933,0.01554 -0.07063,0.01837 -0.138444,0.03673 -0.207666,0.05651 -0.01836,0.0028 -0.03532,0.0085 -0.05086,0.01413 -0.06216,0.01554 -0.121491,0.0339 -0.182237,0.05227 -0.04238,0.01272 -0.08335,0.02543 -0.125729,0.03956 -0.04097,0.01271 -0.08052,0.02543 -0.121491,0.03814 -0.04803,0.01554 -0.09606,0.03249 -0.145508,0.04945 -0.03814,0.01271 -0.0777,0.02684 -0.11584,0.03956 -0.04944,0.01695 -0.09748,0.03532 -0.145507,0.05368 -0.03956,0.01413 -0.07911,0.02967 -0.118666,0.04379 -0.03956,0.01554 -0.07911,0.03108 -0.118666,0.04662 -0.05509,0.02119 -0.11019,0.04379 -0.166698,0.06781 -0.0226,0.0085 -0.04521,0.01836 -0.0664,0.02825 -0.06075,0.02402 -0.118666,0.04944 -0.176586,0.07487 -0.03956,0.01695 -0.07911,0.03532 -0.118666,0.05368 -0.04803,0.02119 -0.09465,0.04379 -0.142682,0.0664 -0.0339,0.01413 -0.0664,0.03108 -0.09889,0.04662 -0.04521,0.02119 -0.09324,0.04379 -0.139857,0.06781 -0.05086,0.02543 -0.103126,0.05086 -0.155396,0.0777 -0.0664,0.03391 -0.132792,0.06922 -0.197776,0.104539 -0.05792,0.02967 -0.117254,0.06216 -0.173761,0.09465 -0.02543,0.01413 -0.05086,0.02825 -0.07487,0.04238 -0.06781,0.03814 -0.134205,0.07629 -0.200602,0.117254 -0.08194,0.04521 -0.162459,0.09606 -0.242982,0.145507 -0.07487,0.04521 -0.14692,0.09183 -0.22038,0.138443 -0.03532,0.02402 -0.07205,0.04803 -0.108777,0.07346 -0.05651,0.03532 -0.111603,0.07205 -0.165285,0.11019 -0.111603,0.07487 -0.221792,0.153983 -0.330569,0.233094 -0.04944,0.03532 -0.09748,0.07205 -0.145508,0.108777 -0.01695,0.0113 -0.03249,0.02402 -0.04944,0.03532 -0.06357,0.04945 -0.128555,0.100301 -0.194951,0.149746 -0.148332,0.11584 -0.295252,0.235919 -0.440759,0.361648 -0.04097,0.0339 -0.08194,0.06922 -0.122904,0.105952 -0.04803,0.04097 -0.09606,0.08335 -0.142682,0.125729 -0.07629,0.06781 -0.152571,0.137031 -0.228856,0.209079 -0.144094,0.134205 -0.286776,0.272649 -0.428045,0.415331 -0.05509,0.05509 -0.108777,0.111602 -0.162459,0.16811 -0.02684,0.02684 -0.05368,0.05368 -0.07911,0.08194 -0.142682,0.149745 -0.281125,0.305141 -0.419569,0.461949 -0.214729,0.247221 -0.42522,0.504331 -0.628647,0.769917 v 0.0014 c -0.06922,0.08759 -0.135618,0.177999 -0.202015,0.268411 -8.5439502,11.630679 -8.41257,27.502253 0.292427,35.448636 8.638601,7.885636 22.471663,5.006574 31.031153,-6.399487" /><path
           id="path68"
           style="fill:#1a7fbb;fill-opacity:1;fill-rule:nonzero;stroke:none;stroke-width:1.41269016"
           d="m 65.252684,60.960026 c -1.087771,1.696641 -2.997729,2.250415 -4.266324,1.238929 -1.268596,-1.011486 -1.415516,-3.206806 -0.327745,-4.902035 1.086359,-1.695228 2.996316,-2.249002 4.266325,-1.237516 1.268596,1.011486 1.415515,3.205394 0.327744,4.900622 M 38.284428,39.025185 c 0.187888,-0.281125 0.381426,-0.550949 0.582028,-0.813709 0.06922,-0.09041 0.137031,-0.177999 0.206253,-0.265586 0.06216,-0.07628 0.122904,-0.151158 0.186475,-0.22603 0.03249,-0.03956 0.06498,-0.0777 0.09748,-0.117254 0.04097,-0.04944 0.08476,-0.100301 0.127142,-0.149745 0.132793,-0.151158 0.266999,-0.300903 0.402617,-0.444997 0.07205,-0.07629 0.144094,-0.151158 0.216141,-0.226031 0.05086,-0.05086 0.103127,-0.103126 0.153984,-0.155396 0.09748,-0.09606 0.197776,-0.192126 0.29949,-0.285363 0.06781,-0.06781 0.139856,-0.132793 0.210491,-0.194951 0.0664,-0.05933 0.132793,-0.118666 0.199189,-0.175174 0.01271,-0.01271 0.02684,-0.02402 0.04097,-0.03532 0.04521,-0.03956 0.09183,-0.07911 0.138444,-0.117253 0.108777,-0.09183 0.218967,-0.182238 0.330569,-0.269824 0.07205,-0.0551 0.144095,-0.11019 0.217555,-0.165285 0.05933,-0.04662 0.120078,-0.09183 0.182237,-0.135618 0.02684,-0.02119 0.05368,-0.03956 0.08052,-0.05933 0.05651,-0.03956 0.111602,-0.08052 0.16811,-0.118666 0.01978,-0.01272 0.03814,-0.02684 0.05792,-0.03814 0.0551,-0.03956 0.111603,-0.0777 0.169523,-0.114428 0.02684,-0.01978 0.05651,-0.03814 0.08617,-0.05651 0.04803,-0.0339 0.09748,-0.06498 0.148333,-0.09465 0.02967,-0.02119 0.06216,-0.03956 0.09324,-0.05933 0.07205,-0.04521 0.145507,-0.089 0.218967,-0.132793 0.06922,-0.04238 0.139857,-0.08194 0.210491,-0.121491 0.01978,-0.0113 0.04238,-0.02402 0.06357,-0.03532 0.0551,-0.03108 0.11019,-0.06216 0.165285,-0.09041 0.02825,-0.01554 0.05933,-0.03249 0.089,-0.04803 0.04944,-0.02684 0.100301,-0.05227 0.149746,-0.07628 0.03108,-0.01837 0.06216,-0.03249 0.09465,-0.04944 0.06922,-0.0339 0.137031,-0.06781 0.206253,-0.09889 0.0085,-0.0056 0.01554,-0.0099 0.02543,-0.01271 0.07063,-0.03532 0.142682,-0.06781 0.216142,-0.09889 0.01413,-0.0071 0.02825,-0.01413 0.04238,-0.01978 0.07205,-0.03249 0.142682,-0.06357 0.214729,-0.09183 0.0113,-0.0056 0.02402,-0.0099 0.03673,-0.01554 0.07911,-0.03249 0.159634,-0.0664 0.240158,-0.09606 0.08476,-0.03391 0.16811,-0.06498 0.254284,-0.09465 0.08476,-0.03108 0.169523,-0.06075 0.255697,-0.089 0.08476,-0.02825 0.170935,-0.0551 0.257109,-0.08052 0.08476,-0.02543 0.170936,-0.05086 0.25711,-0.07346 0.128555,-0.03673 0.258522,-0.06922 0.387077,-0.100301 0.128555,-0.03108 0.25711,-0.05792 0.385664,-0.08194 0.172349,-0.03532 0.344697,-0.06357 0.515632,-0.08617 0.0777,-0.0113 0.155396,-0.02119 0.233094,-0.02967 0.01695,-0.0028 0.03249,-0.0042 0.04944,-0.0057 0.0777,-0.0085 0.155396,-0.01695 0.231682,-0.0226 0.08617,-0.0071 0.172348,-0.01413 0.258522,-0.01836 0.08052,-0.0042 0.162459,-0.0071 0.242983,-0.0099 0.01271,-0.0014 0.02402,-0.0014 0.0339,-0.0014 0.07911,-0.0014 0.156809,-0.0028 0.234507,-0.0014 0.07911,-0.0014 0.159634,0 0.237332,0.0014 0.02119,0.0014 0.04238,0.0014 0.06357,0.0028 0.06074,0.0014 0.122904,0.0042 0.185062,0.0085 0.02402,0.0014 0.04944,0.0014 0.07346,0.0042 0.06357,0.0028 0.125729,0.0085 0.187888,0.01413 0.01836,0 0.03532,0.0028 0.05227,0.0057 0.06781,0.0042 0.134206,0.0113 0.202015,0.01978 0.01554,0.0014 0.02967,0.0028 0.04521,0.0057 0.07063,0.0071 0.142682,0.01695 0.214729,0.02825 0.0057,0 0.0099,0.0014 0.01554,0.0028 0.07346,0.0099 0.148332,0.0226 0.220379,0.03532 0.07205,0.0113 0.142682,0.02543 0.214729,0.04097 0.0551,0.0113 0.108777,0.0226 0.163872,0.03532 0.04097,0.0071 0.08335,0.01836 0.122904,0.02825 0.01272,0.0028 0.0226,0.0042 0.03391,0.0085 0.07487,0.01836 0.148332,0.03673 0.223205,0.05792 0.07487,0.01978 0.149745,0.04097 0.224618,0.06498 0.108777,0.03249 0.217554,0.0664 0.323506,0.105952 0.05933,0.01978 0.117253,0.04097 0.175173,0.06357 0.06922,0.02684 0.141269,0.05368 0.211904,0.08335 0.06216,0.02543 0.125729,0.05227 0.187888,0.07911 0.09324,0.04097 0.186475,0.08335 0.2783,0.128554 0.06922,0.0339 0.135618,0.0664 0.203427,0.103127 0.0339,0.01695 0.06781,0.0339 0.100301,0.05227 0.06075,0.03249 0.120079,0.06498 0.180824,0.09889 0.223205,0.127142 0.442172,0.266998 0.656901,0.416743 0.06216,0.04379 0.124317,0.08617 0.18365,0.132793 0.08476,0.06075 0.169523,0.12573 0.252872,0.193539 4.577116,3.647566 5.106875,11.562869 1.185247,17.675579 -3.923041,6.114124 -3.393282,14.028014 1.183834,17.676993 0.08335,0.0664 0.16811,0.129967 0.252872,0.193538 0.05933,0.04521 0.121491,0.089 0.182237,0.131381 0.216141,0.149745 0.435108,0.291014 0.659726,0.416743 0.05933,0.03391 0.118666,0.0664 0.179412,0.09889 0.03249,0.01837 0.0664,0.03673 0.100301,0.05227 0.0664,0.03673 0.135618,0.07063 0.203427,0.103126 0.327744,0.159634 0.663964,0.295253 1.005835,0.406855 0.0664,0.0226 0.132793,0.04238 0.19919,0.06357 0.07205,0.0226 0.145507,0.04238 0.218967,0.06357 0.03956,0.0099 0.0777,0.02119 0.118666,0.02967 0.04662,0.0113 0.09465,0.02543 0.141269,0.03532 0.02825,0.0071 0.0551,0.01413 0.08476,0.01978 0.05227,0.0113 0.105952,0.0226 0.159634,0.0339 0.07063,0.01554 0.142682,0.02967 0.214729,0.04097 0.05651,0.0113 0.114428,0.02119 0.172348,0.02967 0.04379,0.0071 0.089,0.01271 0.132793,0.01978 0.0085,0.0014 0.01695,0.0028 0.02684,0.0028 0.07911,0.0113 0.159634,0.02119 0.240158,0.02967 0.0777,0.0085 0.155396,0.01695 0.234506,0.0226 0.07346,0.0071 0.14692,0.0113 0.221793,0.01554 0.06074,0.0042 0.122904,0.0071 0.185062,0.0071 0.0226,0.0014 0.04662,0.0028 0.07063,0.0028 0.05086,0.0028 0.10454,0.0028 0.155396,0.0028 0.03956,0.0014 0.0777,0.0014 0.115841,0.0014 0.04238,0 0.08476,0 0.129967,-0.0028 0.04803,0 0.09889,-0.0014 0.148333,-0.0028 0.02119,0 0.04521,-0.0014 0.06781,-0.0042 0.06922,-0.0028 0.139856,-0.0071 0.209078,-0.0099 0.01695,-0.0014 0.03391,-0.0028 0.04944,-0.0042 0.05651,-0.0028 0.113016,-0.0071 0.169523,-0.01271 0.04662,-0.0042 0.09324,-0.0085 0.139857,-0.01413 0.04238,-0.0042 0.08476,-0.0085 0.128554,-0.01413 0.03956,-0.0042 0.0777,-0.0085 0.118666,-0.01554 0.04521,-0.0042 0.09041,-0.0113 0.135619,-0.01837 0.04662,-0.0057 0.09182,-0.01272 0.137031,-0.01978 0.0777,-0.01271 0.156808,-0.02543 0.235919,-0.04097 0.05368,-0.0099 0.105952,-0.01978 0.159634,-0.03108 0.04379,-0.0085 0.08617,-0.01695 0.128555,-0.02684 0.03249,-0.0071 0.0664,-0.01413 0.100301,-0.02119 0.05651,-0.01271 0.113015,-0.02543 0.170935,-0.04097 0.02825,-0.0071 0.05651,-0.01413 0.08617,-0.02119 0.0551,-0.01271 0.11019,-0.02825 0.165285,-0.04379 0.118666,-0.03108 0.235919,-0.06498 0.354585,-0.101714 0.06075,-0.01978 0.121492,-0.03814 0.180825,-0.05792 0.01978,-0.0071 0.04097,-0.01413 0.05933,-0.01978 0.06922,-0.0226 0.137031,-0.04662 0.20484,-0.07063 0.01695,-0.0057 0.0339,-0.01271 0.04944,-0.01837 0.06074,-0.02119 0.118666,-0.04379 0.177999,-0.0664 0.04097,-0.01554 0.08335,-0.03108 0.122904,-0.04803 0.04097,-0.01554 0.07911,-0.03108 0.118666,-0.04803 0.04803,-0.01837 0.09606,-0.03814 0.142681,-0.05792 0.03814,-0.01695 0.0777,-0.03249 0.114428,-0.04944 0.04803,-0.01978 0.09465,-0.04097 0.142682,-0.06357 0.03814,-0.01695 0.07628,-0.03391 0.114428,-0.05227 0.03814,-0.01836 0.0777,-0.03673 0.115841,-0.05651 0.05368,-0.02402 0.108777,-0.05086 0.162459,-0.07911 0.0226,-0.0099 0.04379,-0.02119 0.06498,-0.03249 0.05792,-0.02825 0.114428,-0.05792 0.172348,-0.08759 0.03814,-0.01978 0.07628,-0.03955 0.113015,-0.06216 0.04803,-0.02402 0.09465,-0.04944 0.139856,-0.07629 0.03249,-0.01695 0.06357,-0.03532 0.09465,-0.05227 0.04662,-0.02543 0.09183,-0.05227 0.137031,-0.07911 0.04944,-0.02967 0.100301,-0.05933 0.149745,-0.09041 0.06498,-0.03814 0.128555,-0.0777 0.192126,-0.118666 0.0551,-0.03249 0.113015,-0.06922 0.16811,-0.105952 0.02543,-0.01554 0.04803,-0.03108 0.07205,-0.04803 0.06498,-0.04238 0.129968,-0.08476 0.193539,-0.13138 0.07911,-0.05227 0.156808,-0.107365 0.233093,-0.16246 0.07205,-0.05086 0.14127,-0.103126 0.211904,-0.155396 0.03391,-0.02543 0.06922,-0.05227 0.104539,-0.07911 0.05368,-0.04097 0.107365,-0.08194 0.158221,-0.122904 0.107365,-0.08335 0.211904,-0.169523 0.316443,-0.25711 0.04662,-0.03814 0.09183,-0.0777 0.138444,-0.118666 0.01554,-0.01271 0.03249,-0.02684 0.04662,-0.03956 0.06216,-0.05368 0.124317,-0.107365 0.186476,-0.16246 0.141269,-0.127142 0.279712,-0.258522 0.419569,-0.392728 0.03814,-0.03814 0.0777,-0.07628 0.11584,-0.11584 0.04521,-0.04379 0.09041,-0.09041 0.135618,-0.135618 0.07205,-0.07346 0.144095,-0.148333 0.216142,-0.224618 0.135618,-0.145507 0.269824,-0.29384 0.402617,-0.44641 0.05086,-0.05933 0.101713,-0.120079 0.151158,-0.179412 0.02543,-0.02825 0.05086,-0.05792 0.07346,-0.08759 0.134206,-0.159634 0.264173,-0.324918 0.392728,-0.491616 0.200602,-0.261348 0.395554,-0.533997 0.582029,-0.813709 v -0.0014 c 0.06357,-0.09183 0.125729,-0.186475 0.186475,-0.282538 7.844668,-12.228246 6.785151,-28.054615 -2.367669,-35.352572 -9.080773,-7.240038 -22.716058,-3.36079 -30.588981,8.642838" /></g></g></g></svg>